# xmcd
#
# Track frame offsets:
#	150
#	14060
#	22506
#	32479
#	45116
#	57641
#	67179
#	76982
#	86854
#	95383
#	105251
#	113661
#	124372
#	134326
#	144865
#	155051
#
# Disc length: 2203 seconds
#
# Revision: 2
# Processed by: cddbd v1.5.2PL0 Copyright (c) Steve Scherf et al.
# Submitted via: EZCDAudioConverter 1.2.3.1
#
DISCID=cb089910
DTITLE=Various Artist - The Great Country Superstars - Disc 3
DYEAR=1900
DGENRE=Country
TTITLE0=Willie Nelson - Home Is Where You're Happy
TTITLE1=Willie Nelson - Slow Down Old World
TTITLE2=Willie Nelson - Broken Promises
TTITLE3=Willie Nelson - Any Old Arms Won't Do
TTITLE4=Willie Nelson - Shelter Of Your Arms
TTITLE5=Willie Nelson - Building Heartaches
TTITLE6=Willie Nelson - Ashamed
TTITLE7=Willie Nelson - I Didn't Sleep A Wink
TTITLE8=Waylon Jennings - Abilene
TTITLE9=Waylon Jennings - White Lightning
TTITLE10=Waylon Jennings - Jole Blon
TTITLE11=Waylon Jennings - Sally Was A Good Old Girl
TTITLE12=Waylon Jennings - Lorena
TTITLE13=Waylon Jennings - Dream Baby
TTITLE14=Waylon Jennings - Burning Memories
TTITLE15=Waylon Jennings - When Sin Stops (Love Begins)
EXTD=
EXTT0=
EXTT1=
EXTT2=
EXTT3=
EXTT4=
EXTT5=
EXTT6=
EXTT7=
EXTT8=
EXTT9=
EXTT10=
EXTT11=
EXTT12=
EXTT13=
EXTT14=
EXTT15=
PLAYORDER=
